<?xml version="1.0" encoding="UTF-8"?>
<svg id="Camada_1" xmlns="http://www.w3.org/2000/svg" version="1.1" viewBox="0 0 800 800">
  <!-- Generator: Adobe Illustrator 29.7.1, SVG Export Plug-In . SVG Version: 2.1.1 Build 8)  -->
  <defs>
    <style>
      .st0 {
        fill: #fff;
      }
    </style>
  </defs>
  <path class="st0" d="M401.86,119.99c7.32-10.61,7.85-24.5,1.38-35.65-6.47-11.15-18.79-17.57-31.64-16.48C200.78,82.29,66.67,225.46,66.67,400c0,184.09,149.24,333.33,333.33,333.33,174.53,0,317.71-134.12,332.14-304.94,1.08-12.85-5.34-25.17-16.49-31.64-11.15-6.47-25.03-5.93-35.65,1.39-32.2,22.2-71.2,35.19-113.34,35.19-110.46,0-200-89.54-200-200,0-42.14,12.99-81.14,35.19-113.34Z"/>
</svg>