<?xml version="1.0" encoding="UTF-8"?>
<svg id="Camada_1" xmlns="http://www.w3.org/2000/svg" version="1.1" viewBox="0 0 2000 2000">
  <!-- Generator: Adobe Illustrator 29.7.1, SVG Export Plug-In . SVG Version: 2.1.1 Build 8)  -->
  <defs>
    <style>
      .st0, .st1 {
        fill: #fff;
      }

      .st1 {
        stroke: #fff;
        stroke-linecap: round;
        stroke-linejoin: round;
        stroke-width: 140px;
      }
    </style>
  </defs>
  <g>
    <line class="st0" x1="344.24" y1="868.71" x2="1132.33" y2="297.29"/>
    <path class="st0" d="M380.83,931.32c7.06-5.12,14.11-10.23,21.17-15.35l57.35-41.58c28.25-20.48,56.5-40.97,84.75-61.45,34.46-24.99,68.92-49.97,103.38-74.96,37.74-27.37,75.49-54.74,113.23-82.1,38.23-27.72,76.47-55.45,114.7-83.17,35.52-25.76,71.05-51.51,106.57-77.27,30.02-21.77,60.05-43.54,90.07-65.31,21.65-15.7,43.31-31.4,64.96-47.1,10.19-7.39,20.38-14.76,30.56-22.16.44-.32.89-.65,1.34-.97,8.45-4.56,15.23-10.78,20.34-18.67,6.41-7,10.73-15.22,12.98-24.66,3.02-9.64,3.45-19.27,1.29-28.91-.44-9.65-3.31-18.63-8.6-26.96-9.98-15.48-24.84-29.11-43.33-33.32-17.94-4.09-40.32-3.96-55.87,7.31-7.06,5.12-14.11,10.23-21.17,15.35-19.12,13.86-38.23,27.72-57.35,41.58-28.25,20.48-56.5,40.97-84.75,61.45-34.46,24.99-68.92,49.97-103.38,74.96-37.74,27.37-75.49,54.74-113.23,82.1-38.23,27.72-76.47,55.45-114.7,83.17-35.52,25.76-71.05,51.51-106.57,77.27-30.02,21.77-60.05,43.54-90.07,65.31-21.65,15.7-43.31,31.4-64.96,47.1-10.19,7.39-20.38,14.76-30.56,22.16-.44.32-.89.65-1.34.97-8.45,4.56-15.23,10.78-20.34,18.67-6.41,7-10.73,15.22-12.98,24.66-3.02,9.64-3.45,19.27-1.29,28.91.44,9.65,3.31,18.63,8.6,26.96,9.98,15.48,24.84,29.11,43.33,33.32,17.94,4.09,40.32,3.96,55.87-7.31h0Z"/>
  </g>
  <g>
    <line class="st0" x1="344.24" y1="1055.23" x2="1088.91" y2="1682.2"/>
    <path class="st0" d="M292.97,1106.49c6.67,5.61,13.34,11.23,20.01,16.84,18.06,15.21,36.13,30.42,54.19,45.63,26.69,22.48,53.39,44.95,80.08,67.43,32.56,27.42,65.12,54.83,97.68,82.25,35.66,30.03,71.33,60.06,106.99,90.08,36.13,30.42,72.26,60.84,108.38,91.25,33.57,28.26,67.13,56.52,100.7,84.78,28.37,23.88,56.74,47.77,85.11,71.65,20.46,17.23,40.92,34.45,61.38,51.68,9.63,8.1,19.24,16.23,28.88,24.31.42.35.84.71,1.26,1.06,6.57,7.07,14.34,12.07,23.33,14.99,8.64,4.54,17.95,6.62,27.93,6.24,9.98.38,19.29-1.7,27.93-6.24,8.99-2.92,16.77-7.92,23.33-14.99,12.68-13.82,22.1-31.96,21.23-51.27-.82-18.26-6.69-39.02-21.23-51.27-6.67-5.61-13.34-11.23-20.01-16.84-18.06-15.21-36.13-30.42-54.19-45.63-26.69-22.48-53.39-44.95-80.08-67.43-32.56-27.42-65.12-54.83-97.68-82.25-35.66-30.03-71.33-60.06-106.99-90.08-36.13-30.42-72.26-60.84-108.38-91.25-33.57-28.26-67.13-56.52-100.7-84.78-28.37-23.88-56.74-47.77-85.11-71.65-20.46-17.23-40.92-34.45-61.38-51.68-9.63-8.1-19.24-16.23-28.88-24.31-.42-.35-.84-.71-1.26-1.06-6.57-7.07-14.34-12.07-23.33-14.99-8.64-4.54-17.95-6.62-27.93-6.24-9.98-.38-19.29,1.7-27.93,6.24-8.99,2.92-16.77,7.92-23.33,14.99-12.68,13.82-22.1,31.96-21.23,51.27.82,18.26,6.69,39.02,21.23,51.27h0Z"/>
  </g>
  <g id="Arrow__x2F__Arrow_x5F_Down_x5F_SM">
    <path id="Vector" class="st1" d="M1291.17,1363.96v-727.93M1291.17,636.04l-291.17,291.17M1291.17,636.04l291.17,291.17"/>
  </g>
</svg>