<?xml version="1.0" encoding="UTF-8"?>
<svg id="Camada_1" xmlns="http://www.w3.org/2000/svg" version="1.1" viewBox="0 0 2400 2400">
  <!-- Generator: Adobe Illustrator 29.7.1, SVG Export Plug-In . SVG Version: 2.1.1 Build 8)  -->
  <path d="M456.05,319.12c-1.19,1.19-4.41,2.88-7.12,3.73-7.97,2.88-22.22,14.08-28.84,22.73-3.22,4.24-10.52,13.23-16.11,20.02-5.6,6.62-14.42,17.3-19.51,23.58s-10.52,12.72-12.04,14.25c-1.36,1.53-5.09,6.11-8.31,10.35-6.62,8.65-10.86,13.74-22.39,26.29-4.58,4.92-8.14,9.67-8.14,10.69s-1.02,2.54-2.21,3.22-7.29,7.46-13.57,14.93c-6.45,7.46-16.62,19.51-22.9,26.97-6.28,7.29-15.1,17.64-19.85,22.9-4.58,5.26-11.53,13.4-15.27,17.81-12.55,15.27-19.85,23.92-28.5,33.93-4.92,5.43-9.16,10.86-9.5,11.87s-3.05,4.24-5.94,7.29c-5.09,5.09-9.33,10.01-35.11,41.22-6.62,7.97-14.76,17.81-18.32,22.05-3.39,4.24-10.01,12.55-14.59,18.66s-9.16,11.7-10.35,12.72c-2.21,1.87-22.22,27.99-26.46,34.27-1.53,2.37-3.39,4.92-4.24,5.43s-2.71,2.88-4.24,5.26c-1.7,2.37-6.45,9.16-10.69,15.27l-7.63,11.03v21.37c0,16.96.51,21.88,2.54,23.58,1.36,1.19,2.54,3.39,2.54,5.09s1.19,3.9,2.54,5.09,2.54,3.05,2.54,4.24c0,2.88,19.51,21.2,22.56,21.2,1.36,0,3.39,1.19,4.58,2.54s3.73,2.54,5.77,2.54c1.87,0,5.09,1.19,6.79,2.54,4.92,3.73,40.37,3.56,43.43,0,1.19-1.36,3.56-2.54,5.26-2.54,6.95,0,23.24-14.25,41.39-36.3,8.48-10.52,19.17-22.9,21.71-25.61,1.19-1.19,6.28-7.29,11.37-13.57,10.18-12.72,31.55-38,42.07-50.04,3.73-4.24,10.01-11.87,14.08-16.96,3.9-5.09,10.35-12.72,14.08-16.96,3.9-4.41,11.2-13.06,16.28-19.34s12.55-15.1,16.45-19.51c4.07-4.24,7.29-8.31,7.29-8.99,0-.85,2.88-4.41,6.45-7.97,3.39-3.73,9.67-11.03,13.91-16.28s9.33-11.53,11.53-14.08,6.79-7.97,10.18-12.21c8.65-10.69,26.29-31.04,28.5-33.08,1.02-1.02,2.54-2.88,3.39-4.41,1.36-2.54,14.93-18.66,21.2-25.11,1.36-1.53,5.09-6.11,8.31-10.35s6.95-8.82,8.31-10.35c1.53-1.53,6.95-7.97,12.04-14.25s17.47-21.03,27.48-32.74c25.78-30.19,32.74-45.63,31.38-69.04-1.02-16.79-2.54-23.92-5.6-26.46-1.36-1.02-2.37-3.39-2.37-5.09,0-4.75-18.49-22.56-27.99-26.8-4.58-2.21-10.52-5.09-13.06-6.28-5.77-3.05-42.07-3.39-45.12-.34Z"/>
  <path d="M1894.17,319.62c-2.37,1.19-6.95,3.39-10.35,5.09-13.74,6.45-33.76,31.38-33.76,41.9,0,2.21-1.19,6.11-2.54,8.82-1.36,2.54-2.54,8.48-2.54,12.89s1.19,10.35,2.54,12.89c1.36,2.71,2.54,7.29,2.54,10.18s1.19,6.28,2.54,7.46,2.54,2.88,2.54,3.73c0,1.7,9.16,14.08,12.89,17.47,1.02.85,4.41,5.09,7.46,9.33,6.62,8.65,10.86,13.57,22.56,26.29,4.41,4.92,7.97,9.67,7.97,10.69s1.02,2.54,2.21,3.22c2.37,1.53,18.83,20.53,33.42,38.68,10.01,12.38,20.86,25.11,29.52,34.77,2.88,3.22,7.97,9.33,11.2,13.57s7.63,9.5,9.67,11.87c11.87,13.06,15.78,17.98,15.78,19.34,0,.85,2.54,4.07,5.6,7.12,2.88,2.88,9.67,10.52,14.76,16.79,5.09,6.11,13.23,15.61,17.81,21.03,4.75,5.26,12.72,14.93,17.81,21.2s10.86,13.23,12.72,15.27c1.87,2.21,7.63,9.16,12.72,15.44s10.52,12.72,12.04,14.25c2.21,2.37,9.67,11.2,22.73,27.14,1.87,2.21,6.28,7.29,9.84,11.2,3.39,3.9,6.28,7.8,6.28,8.65s2.37,3.73,5.26,6.62c3.05,2.71,11.2,12.38,18.49,21.2,7.12,8.82,14.76,17.64,16.96,19.51,2.04,1.87,4.75,5.43,6.11,7.97,2.54,4.75,20.53,17.3,31.21,21.71,8.99,3.56,41.39,4.41,46.14,1.02,2.04-1.53,5.26-2.71,6.95-2.71,3.39,0,23.41-14.59,28.16-20.69,9.67-12.38,15.95-29.85,15.78-44.61-.17-11.37-5.94-32.57-10.18-36.81-1.19-1.19-2.04-2.88-2.04-3.9,0-.85-3.9-6.28-8.65-11.87-26.29-31.38-33.08-39.18-34.94-40.37-1.19-.68-2.21-2.21-2.21-3.22s-3.56-5.77-7.97-10.69c-11.53-12.38-15.95-17.64-22.56-26.29s-11.03-13.91-22.39-26.29c-4.58-4.92-8.14-9.5-8.14-10.35s-2.04-3.39-4.41-5.6c-2.37-2.37-12.38-14.08-22.39-26.12-25.27-30.87-39.69-47.67-42.24-49.19-1.19-.68-2.21-2.21-2.21-3.39s-3.56-5.94-8.14-10.86c-13.23-14.59-22.39-25.61-22.39-27.14,0-.85-2.04-3.39-4.58-5.6-2.71-2.37-7.8-8.14-11.53-12.72-3.56-4.75-7.97-10.01-9.67-11.87s-7.8-9.16-13.57-16.28c-5.94-7.12-14.42-17.3-19.17-22.73-4.58-5.6-9.5-11.2-10.69-12.72-3.39-4.24-19-22.56-23.07-27.14-2.21-2.37-6.45-7.63-9.67-11.87-15.61-20.53-28.16-32.74-38.51-37.49-4.41-2.04-10.01-4.75-12.55-5.94-5.77-3.05-41.05-3.05-47.16.17Z"/>
  <path d="M806,511.31c-.85.17-5.09,1.36-9.33,2.54-20.53,5.6-37.15,18.32-44.27,33.93-5.26,11.37-9.5,22.9-11.7,32.06-.85,3.05-2.21,6.45-3.22,7.46s-1.87,3.39-1.87,5.43-.68,4.24-1.53,5.09c-.85,1.02-2.37,4.41-3.22,7.63-3.22,10.52-7.29,21.2-8.99,22.73-.85,1.02-1.53,3.56-1.53,5.94,0,2.54-1.19,5.94-2.54,7.63-1.36,1.87-2.54,4.58-2.54,6.28,0,1.53-1.19,5.09-2.54,7.63-1.36,2.71-2.54,6.11-2.54,7.63,0,1.36-1.19,4.07-2.54,5.94-1.36,1.7-2.54,5.26-2.54,7.63,0,2.54-1.19,5.43-2.54,6.62s-2.54,4.07-2.54,6.62c0,2.37-1.19,5.94-2.54,7.63-1.36,1.87-2.54,4.58-2.54,5.94,0,1.53-1.19,4.92-2.54,7.63-1.36,2.54-2.54,6.11-2.54,7.63,0,1.7-1.19,4.41-2.54,6.28-1.36,1.7-2.54,4.75-2.54,6.62s-1.19,4.92-2.54,6.62c-1.36,1.87-2.54,5.43-2.54,7.97,0,2.37-1.19,5.43-2.54,6.62s-2.54,4.07-2.54,6.28c0,2.37-1.02,6.28-2.37,8.65-3.05,6.11-6.28,15.44-7.29,21.03-.51,2.54-1.87,5.6-3.22,6.62s-2.37,3.56-2.37,5.6-1.19,5.26-2.54,7.12c-1.36,1.7-2.54,5.09-2.54,7.46s-1.02,5.77-2.21,7.63-3.9,8.99-6.11,15.78-4.58,12.72-5.43,13.23-1.53,2.54-1.53,4.58-1.19,5.26-2.54,6.95c-1.36,1.87-2.54,4.75-2.54,6.62,0,1.7-1.19,5.94-2.71,9.33-1.53,3.56-3.73,8.82-5.09,11.87s-2.37,6.62-2.37,7.97-1.19,5.26-2.71,8.82c-6.95,15.78-10.69,25.95-12.04,32.74-.51,2.37-1.7,5.09-2.37,6.11-.85,1.02-3.39,7.46-5.77,14.42-5.77,17.3-8.31,24.09-10.01,26.8-.85,1.19-2.04,4.58-2.71,7.63-.85,2.88-3.05,9.5-5.09,14.59s-4.07,11.2-4.58,13.57-1.87,5.26-2.88,6.62-2.21,10.86-2.37,21.2c-.51,14.59,0,20.53,2.04,25.44,1.53,3.56,2.71,7.46,2.71,8.82,0,3.39,10.18,17.81,17.81,24.77,29.69,27.82,78.03,22.73,103.3-10.86,6.28-8.14,21.37-36.3,21.37-39.69,0-1.02,1.19-2.88,2.54-4.07s2.54-3.56,2.54-5.43,1.02-5.43,2.37-7.8c1.19-2.54,3.73-7.63,5.26-11.37,1.7-3.73,4.07-8.99,5.26-11.53,1.36-2.71,2.37-6.28,2.37-7.97,0-1.53,1.19-3.9,2.54-5.09s2.54-3.56,2.54-5.43,1.02-5.43,2.37-7.8c1.19-2.54,3.9-9.16,5.77-14.76s4.41-12.89,5.6-16.11c1.02-3.22,3.05-7.97,4.24-10.52,1.36-2.37,2.37-5.94,2.37-7.8s1.02-5.6,2.37-8.31c1.36-2.54,3.73-9.33,5.26-14.93s3.9-12.72,5.26-15.78,2.37-6.79,2.37-8.48c0-1.53,1.19-4.41,2.54-6.11,1.36-1.87,2.54-5.09,2.54-7.12s1.02-5.94,2.37-8.65c1.36-2.54,3.73-9.33,5.26-14.93,4.58-16.11,7.29-24.6,12.04-38.17,2.37-6.95,4.92-15.61,5.77-19.17.68-3.56,2.21-7.46,3.22-8.48s1.87-3.73,1.87-5.77c0-2.21,1.02-6.11,2.21-8.65,1.36-2.54,3.73-9.5,5.26-15.61,1.7-6.11,4.07-13.06,5.43-15.61,1.36-2.37,2.37-5.94,2.37-7.63,0-1.87,1.19-4.75,2.54-6.62,1.36-1.7,2.54-5.09,2.54-7.12,0-2.21,1.02-6.11,2.37-8.48,1.36-2.54,4.75-12.21,7.8-21.54s6.62-18.49,7.8-20.36c1.36-1.87,2.37-4.92,2.37-6.95s1.02-5.94,2.37-8.65c1.36-2.54,3.73-8.14,5.26-12.38,1.7-4.24,3.9-10.01,5.09-12.72,1.19-2.88,3.39-7.8,4.75-11.03s3.56-8.65,5.09-11.87,3.22-8.99,3.9-12.72,1.87-7.8,2.88-8.99c2.71-3.39-2.88-37.32-6.79-41.39-1.19-1.02-2.21-3.05-2.21-4.41,0-5.26-14.93-21.37-25.27-27.14-11.37-6.45-37.32-10.86-46.82-7.97Z"/>
  <path d="M1558.82,513.51c-3.9,1.7-8.14,3.9-9.33,5.09-1.02,1.02-2.88,2.04-3.9,2.04-2.21,0-20.36,18.49-25.95,26.63-7.8,11.03-11.37,36.3-7.29,50.38.85,2.88,2.88,9.84,4.41,15.44,1.53,5.6,3.9,12.72,5.26,15.78s2.37,7.29,2.37,9.33,1.19,5.26,2.54,6.95c1.36,1.87,2.54,5.77,2.54,8.65s1.02,6.62,2.37,8.48c1.19,1.87,2.71,5.26,3.22,7.63,1.02,4.75,3.9,13.23,7.46,21.54,1.19,2.88,2.21,6.79,2.21,8.65s1.02,4.24,2.37,5.26,2.71,4.41,3.22,7.46c.34,3.05,2.37,9.67,4.41,14.76,6.11,15.27,8.82,22.73,9.84,26.29.51,1.87,1.87,5.77,3.22,8.82,1.36,2.88,2.37,6.62,2.37,8.14s1.19,3.9,2.54,5.26c1.36,1.53,2.54,4.24,2.54,6.28s1.19,5.26,2.54,6.95c1.36,1.87,2.54,4.41,2.54,5.77s1.19,5.09,2.71,8.48c1.53,3.56,3.73,8.82,5.09,11.87s2.37,6.95,2.37,8.48c0,1.7,1.19,4.58,2.54,6.45,1.36,1.7,2.54,4.58,2.54,6.11s1.02,4.92,2.37,7.63c1.19,2.54,3.39,7.46,4.75,10.69s3.9,8.82,5.43,12.38,2.71,7.63,2.71,9.33c0,1.53,1.19,4.41,2.54,6.11,1.36,1.87,2.54,4.75,2.54,6.28,0,1.7,1.02,5.09,2.37,7.8,1.19,2.54,3.39,7.46,4.75,10.69s3.9,8.82,5.43,12.38,2.71,7.8,2.71,9.5,1.19,4.07,2.54,5.26,2.54,4.24,2.54,6.79,1.19,5.6,2.54,6.79,2.54,3.73,2.54,5.77,1.19,5.26,2.54,7.12c1.36,1.7,2.54,4.92,2.54,6.95s.68,4.07,1.53,4.58,3.22,6.45,5.43,13.23c2.21,6.79,4.92,13.91,6.11,15.78s2.21,5.26,2.21,7.63,1.19,5.77,2.54,7.46c1.36,1.87,2.54,5.09,2.54,7.12s1.19,4.58,2.54,5.77,2.54,3.56,2.54,5.26,1.02,5.6,2.37,8.65c2.88,7.12,5.94,15.95,7.8,22.56,2.04,7.29,5.26,16.62,6.95,19.51.85,1.36,2.71,5.09,4.24,7.97,3.73,7.29,22.9,25.27,30.87,28.67,6.45,2.88,15.44,5.26,25.44,6.95,14.25,2.37,41.39-7.8,54.45-20.36,7.63-7.46,15.44-18.32,15.44-21.88,0-1.02,1.36-3.39,3.05-5.26,4.24-4.75,4.07-41.9-.17-49.87-1.53-3.05-2.88-7.29-2.88-9.5,0-2.04-.68-4.58-1.53-5.6-1.7-1.53-4.24-8.14-11.37-29.52-2.37-6.95-4.92-13.4-5.6-14.42-.85-.85-1.87-3.56-2.37-5.94-.85-4.24-5.09-16.62-7.8-22.9-.85-1.87-2.71-6.79-4.41-11.03-1.53-4.24-3.9-10.18-5.26-13.23s-2.37-6.79-2.37-8.48c0-1.53-1.19-4.41-2.54-6.11-1.36-1.87-2.54-4.75-2.54-6.45,0-2.71-1.19-5.77-7.63-20.86-1.19-2.88-2.54-6.62-3.05-8.48s-2.54-7.63-4.58-12.72c-2.21-5.09-4.24-11.7-4.58-14.76-.51-3.05-1.87-6.45-3.22-7.46s-2.37-4.07-2.37-6.62-1.02-5.6-2.37-6.62-2.71-4.07-3.22-6.62-2.54-8.82-4.58-13.91-4.07-11.2-4.58-13.57-2.04-5.77-3.22-7.63c-1.36-1.87-2.37-4.92-2.37-6.79,0-2.04-1.19-5.09-2.54-6.95-1.36-1.7-2.54-4.75-2.54-6.62s-1.02-4.92-2.37-6.79c-1.19-1.87-2.71-5.26-3.22-7.63s-2.54-8.48-4.58-13.57-4.24-11.7-4.58-14.76c-.51-3.05-1.87-6.45-3.22-7.46s-2.37-3.22-2.37-4.75-1.19-4.92-2.54-7.63c-1.36-2.54-2.54-6.28-2.54-7.97s-.68-3.39-1.53-3.9c-.68-.51-3.05-6.45-5.09-13.23-2.21-6.79-4.92-14.42-6.28-16.96-1.36-2.37-2.37-5.6-2.37-6.95,0-1.53-1.02-4.75-2.37-7.46-1.36-2.54-4.58-10.86-7.29-18.32-2.71-7.46-5.94-16.28-7.12-19.51s-2.71-7.97-3.05-10.52c-.51-2.54-1.87-5.6-3.22-6.62s-2.37-3.9-2.37-6.11c0-2.37-1.02-6.28-2.37-8.65-1.36-2.54-3.73-7.97-5.26-12.21s-3.56-8.82-4.41-10.18-2.21-4.07-3.05-5.94c-1.87-4.41-14.76-16.28-23.24-21.54-15.78-9.67-44.27-12.89-59.54-6.79Z"/>
  <path d="M1174.1,581.19c-13.06,4.75-31.04,21.03-38.68,35.28-8.48,15.61-7.97-1.36-7.97,285.66.17,228.49.51,268.02,2.54,271.58,1.36,2.37,2.37,6.28,2.54,8.82,0,2.71.85,4.75,1.7,4.75,1.02,0,2.37,1.36,3.05,3.05,8.14,20.36,39.86,38.85,63.78,37.15,26.12-1.7,51.23-18.83,63.1-42.92l5.77-11.7v-270.05c0-227.81-.34-270.73-2.37-274.8-8.14-16.45-10.86-20.86-17.64-27.82-7.63-8.31-24.6-18.49-30.53-18.49-2.04,0-4.07-.85-4.58-1.7-1.53-2.54-32.74-1.7-40.71,1.19Z"/>
  <path d="M180.57,1365.9c-5.94,4.58-7.97,7.46-10.86,16.45-3.22,9.84-3.22,11.7-1.19,20.19,1.19,5.26,2.21,12.21,2.21,15.44,0,3.39.68,6.79,1.7,7.8.85.85,2.21,6.62,2.71,12.55.68,6.11,2.04,12.89,3.22,15.27s2.54,8.65,3.05,13.91c.51,5.43,1.7,12.21,2.54,15.27,2.04,6.28,5.09,21.54,7.12,34.43.85,4.58,2.21,11.53,3.22,15.27s1.87,10.01,1.87,13.74c0,4.24,1.02,7.97,2.54,9.16,1.7,1.36,2.54,5.26,2.54,11.2,0,4.92,1.02,12.04,2.37,15.44,1.19,3.56,3.22,11.37,4.24,17.47s2.71,14.42,3.56,18.66,2.54,13.4,3.56,20.36,2.54,14.08,3.56,15.95c.85,1.7,2.04,7.46,2.54,12.72.34,5.26,1.87,12.21,3.05,15.44s2.71,10.01,3.22,14.93,1.7,11.53,2.54,14.42c1.87,6.11,4.92,21.71,6.95,34.27.85,4.58,2.21,11.53,3.22,15.27s1.87,10.01,1.87,13.74c0,4.24,1.02,7.97,2.54,9.16,1.36,1.19,2.54,3.22,2.54,4.75,0,4.41,11.53,16.79,19.17,20.53,7.46,3.56,19.51,4.75,22.39,2.04,1.02-.85,4.41-2.37,7.63-3.39,3.73-1.19,9.67-6.11,16.11-13.06,23.92-26.29,30.36-32.91,32.57-32.91,1.19,0,2.71-1.19,3.22-2.54.68-1.7,3.39-2.54,8.65-2.54,7.12,0,8.31.85,21.54,13.06,20.69,19.68,28.16,26.29,36.64,32.74,7.46,5.77,9.5,7.29,23.07,19.34,3.9,3.39,7.46,6.11,7.97,6.11,1.53,0,27.48,19.85,30.02,22.9,1.19,1.36,2.88,2.54,3.73,2.54s7.46,4.41,14.59,9.84,14.25,10.52,15.61,11.2c4.07,1.87,8.14,4.41,27.65,17.64,10.18,6.62,19,12.21,19.68,12.21.85,0,4.58,2.21,8.31,5.09,3.9,2.71,7.63,5.09,8.14,5.09s4.41,2.21,8.65,5.09c4.07,2.71,8.31,5.09,9.33,5.09.85,0,4.92,2.21,8.82,4.75,3.73,2.54,17.3,9.84,29.85,16.11,22.22,11.2,25.44,12.89,31.89,16.45,1.53,1.02,4.07,2.21,5.43,2.71s5.26,2.04,8.48,3.56c3.22,1.36,8.31,3.56,11.03,4.75,2.88,1.19,8.14,3.39,11.87,5.09,7.46,3.39,15.61,6.95,24.6,10.69,3.22,1.36,8.14,3.56,10.69,4.75,2.71,1.36,6.11,2.37,7.63,2.37s4.41,1.19,6.11,2.54c1.87,1.36,5.09,2.54,7.12,2.54s4.58,1.19,5.77,2.54,3.73,2.54,5.77,2.54,5.26,1.19,7.12,2.54c1.7,1.36,5.09,2.54,7.46,2.54s5.77,1.02,7.63,2.37c1.87,1.19,5.77,2.71,8.48,3.05,5.26,1.02,12.72,3.56,22.39,7.63,2.88,1.19,7.46,2.21,10.35,2.21,2.71,0,5.94,1.19,7.12,2.54s4.24,2.54,6.95,2.54c2.54,0,6.79.85,9.5,2.04,2.54,1.02,8.99,3.05,14.08,4.24,5.09,1.19,12.04,3.05,15.27,3.9s10.18,2.37,15.27,3.56c5.09,1.02,11.53,2.88,14.08,4.24,2.71,1.36,7.97,2.37,11.87,2.37s9.33,1.19,12.04,2.54c2.54,1.36,7.63,2.54,11.2,2.54s10.18,1.02,14.59,2.37c7.97,2.37,22.9,4.92,43.93,7.8,5.6.68,15.1,2.21,21.2,3.22,6.11,1.02,15.44,1.87,20.86,1.87s11.87,1.02,14.42,2.37c3.05,1.53,14.93,2.54,36.47,3.22,17.47.68,33.25,1.87,35.11,2.88,4.24,2.37,126.37,2.37,130.61,0,1.87-1.02,17.64-2.21,35.11-2.88,19.68-.51,33.59-1.7,36.13-3.05,2.37-1.19,13.06-2.54,23.75-3.22s20.19-1.87,21.2-2.71c.85-.68,6.28-1.7,11.87-2.21,15.44-1.19,36.98-4.75,40.37-6.45,1.7-1.02,8.14-2.04,14.42-2.71,6.28-.51,13.06-2.04,15.1-3.22,2.04-1.36,7.12-2.37,11.03-2.37s9.5-1.19,12.21-2.54c2.54-1.36,6.62-2.54,8.65-2.54s7.97-1.19,12.89-2.71c5.09-1.36,13.06-3.73,17.64-4.92,21.54-5.94,29.18-7.97,33.93-9.67,5.26-1.7,18.49-5.6,27.14-8.14,6.62-1.87,15.61-4.92,22.56-7.8,3.05-1.36,6.95-2.37,8.65-2.37s4.07-1.19,5.26-2.54,4.07-2.54,6.28-2.54c2.37,0,6.28-1.02,8.65-2.37,8.82-4.58,17.47-7.8,20.53-7.8,1.7,0,4.07-1.19,5.26-2.54s4.24-2.54,6.79-2.54,5.6-1.19,6.79-2.54,3.39-2.54,5.09-2.54,3.9-1.19,5.09-2.54,3.56-2.54,5.26-2.54c1.87,0,7.63-2.37,12.89-5.09s10.86-5.09,12.38-5.09c1.7,0,3.9-1.19,5.09-2.54s3.39-2.54,5.09-2.54,3.9-1.19,5.09-2.54,2.88-2.54,3.9-2.54c1.53,0,30.19-13.91,38.51-18.66,1.36-.85,3.73-1.87,5.09-2.37,1.36-.68,4.92-2.54,7.63-4.41,2.88-1.7,8.99-5.26,13.57-7.63,12.72-6.62,16.28-8.82,18.32-10.86,1.02-1.02,2.88-1.87,3.9-1.87,1.19,0,6.95-3.22,12.89-7.29s11.87-7.8,13.23-8.48c3.73-1.87,8.14-4.75,20.02-12.72,5.94-3.9,11.2-7.12,11.53-7.12.51,0,6.95-4.58,14.25-10.18s13.91-10.18,14.42-10.18c1.19,0,48.34-35.28,50.89-38.17,1.02-1.02,5.43-4.75,10.01-8.14,9.67-7.29,37.83-31.72,52.75-45.8,9.16-8.48,11.37-9.67,17.3-9.67,6.62,0,7.8,1.02,30.02,23.41,32.4,32.74,42.41,37.49,60.22,28.33,13.06-6.45,22.05-19.85,23.41-34.6.51-5.26,2.04-11.03,3.22-12.89,1.36-1.87,2.37-7.46,2.37-12.72.17-5.09,1.19-11.2,2.54-13.57s2.37-7.46,2.54-11.2c0-3.9,1.02-10.86,2.37-15.27,1.36-4.58,3.39-13.23,4.41-19.34,1.19-6.11,2.71-14.42,3.56-18.66s2.21-12.55,3.22-18.66c1.02-6.11,2.71-13.4,3.73-16.11,1.02-2.88,2.37-10.18,3.05-16.45.68-6.28,2.04-12.38,2.88-13.57,1.02-1.19,2.21-7.29,2.71-13.57.68-6.45,1.87-13.06,2.88-14.76.85-1.87,1.7-6.79,1.7-11.03s.68-7.97,1.53-8.65c.85-.51,2.21-6.11,2.71-12.38.68-6.28,2.37-13.4,3.56-15.95,1.36-2.54,2.37-8.65,2.37-13.57s1.02-10.52,2.37-12.38c1.19-1.87,2.71-8.31,3.39-14.25.51-6.11,1.7-13.4,2.54-16.11,2.04-6.62,6.28-29.18,10.86-56.66,1.36-7.8,3.22-14.93,4.41-16.11,2.71-2.71,2.37-11.87-.68-15.78-1.36-1.7-2.54-4.75-2.54-6.62-.17-4.58-6.28-11.2-13.74-14.93-9.84-5.09-49.02-2.71-70.23,4.07-2.71.85-10.01,2.04-16.11,2.71-6.11.51-12.55,2.04-14.42,3.22-1.87,1.36-6.95,2.37-11.37,2.37s-11.03,1.02-14.42,2.37c-3.56,1.19-11.37,3.22-17.47,4.24-18.83,3.39-27.65,5.09-34.77,6.79-3.73,1.02-9.5,1.87-12.89,1.87s-6.79.85-7.63,1.7c-1.02,1.02-7.12,2.54-13.57,3.22-6.45.85-13.91,2.21-16.79,3.22-2.71,1.02-10.01,2.71-16.11,3.73-25.44,4.24-28.67,4.75-30.36,5.77-1.02.68-6.45,1.87-12.38,2.71-21.71,3.22-32.91,5.43-37.83,7.12-2.71,1.02-9.33,2.21-14.42,2.88s-10.35,1.87-11.7,2.54c-1.36.85-8.65,2.71-16.11,3.9-41.56,6.95-46.14,8.48-56.15,18.49-7.29,7.29-9.16,10.18-10.01,16.62-2.71,17.64,2.37,26.46,32.74,57.5l24.77,25.11-12.89,12.21c-13.91,13.4-35.11,31.21-52.42,44.44-6.11,4.58-11.7,8.99-12.72,9.67-6.45,5.26-30.7,22.22-39.52,27.65-1.53.85-7.29,4.75-13.06,8.65-5.6,3.73-11.37,7.29-12.72,7.97s-4.75,2.71-7.63,4.58c-2.71,1.87-6.79,4.07-8.82,4.92-1.87.85-4.07,2.54-4.75,3.39-.51,1.02-2.21,1.87-3.56,1.87-1.53,0-5.09,1.87-7.97,4.07-3.05,2.21-9.67,6.11-14.76,8.48-5.09,2.54-10.69,5.26-12.21,6.11-1.7,1.02-4.41,2.37-5.94,3.39-1.7.85-7.29,3.56-12.38,6.11-5.09,2.37-15.27,7.46-22.73,11.03-7.29,3.56-14.59,6.62-16.28,6.62s-3.9,1.19-5.09,2.54-3.05,2.54-4.24,2.54c-2.21,0-23.24,8.48-31.89,12.89-2.71,1.36-6.95,2.37-9.67,2.37-2.54,0-5.6,1.19-6.79,2.54s-3.56,2.54-5.43,2.54-5.43,1.02-7.8,2.37c-5.77,2.88-14.59,5.94-22.39,7.8-13.06,3.22-21.37,5.77-26.63,7.8-2.88,1.36-7.29,2.37-9.84,2.37-2.37,0-6.45,1.02-8.99,2.37-2.54,1.19-8.14,2.71-12.55,3.22-4.41.68-9.5,1.87-11.03,2.71-2.88,1.36-15.1,4.07-32.74,7.12-4.24.68-10.69,2.04-14.42,3.05s-10.52,1.87-14.93,1.87-9.84.85-11.87,2.04c-2.04,1.02-12.38,2.54-22.9,3.22-10.69.85-20.19,2.21-21.37,3.05-6.28,5.26-183.37,4.58-198.98-.68-4.07-1.36-13.57-2.54-21.03-2.54-8.14,0-15.44-1.02-18.15-2.37-2.54-1.19-11.03-2.71-19-3.39-7.97-.68-15.1-1.87-15.95-2.71-1.02-1.02-4.58-1.7-7.97-1.7s-9.5-1.19-13.4-2.54-9.67-2.54-12.89-2.54c-3.05,0-5.94-.68-6.45-1.53s-4.58-2.04-8.99-2.71c-4.58-.51-9.84-2.21-11.87-3.56s-6.28-2.37-9.33-2.37-7.8-1.19-10.52-2.54c-2.54-1.36-5.94-2.54-7.12-2.54-3.39,0-34.6-10.01-40.03-12.89-2.37-1.36-6.28-2.37-8.65-2.37-2.21,0-5.09-1.19-6.28-2.54s-4.24-2.54-6.79-2.54-5.6-1.19-6.79-2.54-3.56-2.54-5.43-2.54-5.43-1.02-7.8-2.37c-2.54-1.36-7.97-3.73-12.21-5.26-4.24-1.7-12.55-5.26-18.66-7.97-6.11-2.88-13.23-6.11-16.11-7.29-8.48-3.56-29.69-14.25-45.8-23.07-8.31-4.58-16.79-8.99-18.66-9.84s-6.28-3.56-9.84-5.94-6.79-4.41-7.29-4.41c-2.54,0-45.29-27.31-60.05-38.17-5.09-3.9-10.52-7.46-11.87-8.14-1.36-.51-7.12-4.58-12.55-9.16-5.43-4.41-11.7-9.33-13.74-10.69-4.41-2.88-19.51-15.27-22.05-17.98-.85-1.02-5.09-4.41-9.33-7.46-4.24-3.22-10.01-8.14-12.89-11.03-2.88-2.71-8.14-7.63-11.7-10.69-6.11-5.26-6.28-5.77-4.07-10.01,1.36-2.37,4.07-5.6,6.28-7.12,6.11-4.07,36.3-33.93,38.85-38,1.19-2.04,2.54-4.92,3.22-6.28s2.04-3.56,3.05-4.92c4.75-6.11,7.63-21.03,4.41-23.07-.85-.51-1.7-2.37-1.7-4.07,0-1.53-3.73-7.12-8.14-12.04-8.14-9.16-8.48-9.16-22.56-11.53-7.8-1.19-17.98-2.88-22.73-3.73-4.58-.85-14.76-2.71-22.56-3.9-7.8-1.36-14.93-3.22-16.11-4.41-1.02-1.02-5.26-1.87-9.5-1.87s-10.01-1.19-12.72-2.54c-2.54-1.36-6.95-2.54-9.5-2.54s-8.48-1.02-12.89-2.37c-4.58-1.36-14.42-3.73-21.88-5.26-7.46-1.7-16.79-4.07-20.86-5.26-3.9-1.36-9.33-2.37-11.87-2.37s-6.11-1.19-7.8-2.54c-1.87-1.36-6.28-2.54-9.84-2.54s-9.33-1.19-12.72-2.54c-3.22-1.36-7.97-2.54-10.35-2.54s-8.14-1.02-12.89-2.37-14.76-3.73-22.22-5.26-15.78-3.56-18.66-4.58c-2.71-1.02-10.01-2.37-16.11-2.88-6.11-.51-12.21-1.87-13.57-2.71-2.37-1.7-17.64-4.24-43.26-7.46-6.45-.85-16.45-2.37-21.88-3.39-5.6-1.02-19-1.87-30.02-1.87-19.85,0-20.02,0-27.31,5.6Z"/>
</svg>