<?xml version="1.0" encoding="UTF-8"?>
<svg id="Camada_1" xmlns="http://www.w3.org/2000/svg" version="1.1" viewBox="0 0 2400 2400">
  <!-- Generator: Adobe Illustrator 29.7.1, SVG Export Plug-In . SVG Version: 2.1.1 Build 8)  -->
  <defs>
    <style>
      .st0 {
        fill: #fff;
      }
    </style>
  </defs>
  <g>
    <path class="st0" d="M456.34,325.38c-1.19,1.19-4.41,2.88-7.12,3.73-7.97,2.88-22.22,14.08-28.84,22.73-3.22,4.24-10.52,13.23-16.11,20.02-5.6,6.62-14.42,17.3-19.51,23.58s-10.52,12.72-12.04,14.25c-1.36,1.53-5.09,6.11-8.31,10.35-6.62,8.65-10.86,13.74-22.39,26.29-4.58,4.92-8.14,9.67-8.14,10.69s-1.02,2.54-2.21,3.22-7.29,7.46-13.57,14.93c-6.45,7.46-16.62,19.51-22.9,26.97-6.28,7.29-15.1,17.64-19.85,22.9-4.58,5.26-11.53,13.4-15.27,17.81-12.55,15.27-19.85,23.92-28.5,33.93-4.92,5.43-9.16,10.86-9.5,11.87s-3.05,4.24-5.94,7.29c-5.09,5.09-9.33,10.01-35.11,41.22-6.62,7.97-14.76,17.81-18.32,22.05-3.39,4.24-10.01,12.55-14.59,18.66s-9.16,11.7-10.35,12.72c-2.21,1.87-22.22,27.99-26.46,34.27-1.53,2.37-3.39,4.92-4.24,5.43s-2.71,2.88-4.24,5.26c-1.7,2.37-6.45,9.16-10.69,15.27l-7.63,11.03v21.37c0,16.96.51,21.88,2.54,23.58,1.36,1.19,2.54,3.39,2.54,5.09s1.19,3.9,2.54,5.09,2.54,3.05,2.54,4.24c0,2.88,19.51,21.2,22.56,21.2,1.36,0,3.39,1.19,4.58,2.54s3.73,2.54,5.77,2.54c1.87,0,5.09,1.19,6.79,2.54,4.92,3.73,40.37,3.56,43.43,0,1.19-1.36,3.56-2.54,5.26-2.54,6.95,0,23.24-14.25,41.39-36.3,8.48-10.52,19.17-22.9,21.71-25.61,1.19-1.19,6.28-7.29,11.37-13.57,10.18-12.72,31.55-38,42.07-50.04,3.73-4.24,10.01-11.87,14.08-16.96,3.9-5.09,10.35-12.72,14.08-16.96,3.9-4.41,11.2-13.06,16.28-19.34s12.55-15.1,16.45-19.51c4.07-4.24,7.29-8.31,7.29-8.99,0-.85,2.88-4.41,6.45-7.97,3.39-3.73,9.67-11.03,13.91-16.28s9.33-11.53,11.53-14.08,6.79-7.97,10.18-12.21c8.65-10.69,26.29-31.04,28.5-33.08,1.02-1.02,2.54-2.88,3.39-4.41,1.36-2.54,14.93-18.66,21.2-25.11,1.36-1.53,5.09-6.11,8.31-10.35s6.95-8.82,8.31-10.35c1.53-1.53,6.95-7.97,12.04-14.25s17.47-21.03,27.48-32.74c25.78-30.19,32.74-45.63,31.38-69.04-1.02-16.79-2.54-23.92-5.6-26.46-1.36-1.02-2.37-3.39-2.37-5.09,0-4.75-18.49-22.56-27.99-26.8-4.58-2.21-10.52-5.09-13.06-6.28-5.77-3.05-42.07-3.39-45.12-.34Z"/>
    <path class="st0" d="M1894.46,325.89c-2.37,1.19-6.95,3.39-10.35,5.09-13.74,6.45-33.76,31.38-33.76,41.9,0,2.21-1.19,6.11-2.54,8.82-1.36,2.54-2.54,8.48-2.54,12.89s1.19,10.35,2.54,12.89c1.36,2.71,2.54,7.29,2.54,10.18s1.19,6.28,2.54,7.46,2.54,2.88,2.54,3.73c0,1.7,9.16,14.08,12.89,17.47,1.02.85,4.41,5.09,7.46,9.33,6.62,8.65,10.86,13.57,22.56,26.29,4.41,4.92,7.97,9.67,7.97,10.69s1.02,2.54,2.21,3.22c2.37,1.53,18.83,20.53,33.42,38.68,10.01,12.38,20.86,25.11,29.52,34.77,2.88,3.22,7.97,9.33,11.2,13.57s7.63,9.5,9.67,11.87c11.87,13.06,15.78,17.98,15.78,19.34,0,.85,2.54,4.07,5.6,7.12,2.88,2.88,9.67,10.52,14.76,16.79,5.09,6.11,13.23,15.61,17.81,21.03,4.75,5.26,12.72,14.93,17.81,21.2s10.86,13.23,12.72,15.27c1.87,2.21,7.63,9.16,12.72,15.44s10.52,12.72,12.04,14.25c2.21,2.37,9.67,11.2,22.73,27.14,1.87,2.21,6.28,7.29,9.84,11.2,3.39,3.9,6.28,7.8,6.28,8.65s2.37,3.73,5.26,6.62c3.05,2.71,11.2,12.38,18.49,21.2,7.12,8.82,14.76,17.64,16.96,19.51,2.04,1.87,4.75,5.43,6.11,7.97,2.54,4.75,20.53,17.3,31.21,21.71,8.99,3.56,41.39,4.41,46.14,1.02,2.04-1.53,5.26-2.71,6.95-2.71,3.39,0,23.41-14.59,28.16-20.69,9.67-12.38,15.95-29.85,15.78-44.61-.17-11.37-5.94-32.57-10.18-36.81-1.19-1.19-2.04-2.88-2.04-3.9,0-.85-3.9-6.28-8.65-11.87-26.29-31.38-33.08-39.18-34.94-40.37-1.19-.68-2.21-2.21-2.21-3.22s-3.56-5.77-7.97-10.69c-11.53-12.38-15.95-17.64-22.56-26.29s-11.03-13.91-22.39-26.29c-4.58-4.92-8.14-9.5-8.14-10.35s-2.04-3.39-4.41-5.6c-2.37-2.37-12.38-14.08-22.39-26.12-25.27-30.87-39.69-47.67-42.24-49.19-1.19-.68-2.21-2.21-2.21-3.39s-3.56-5.94-8.14-10.86c-13.23-14.59-22.39-25.61-22.39-27.14,0-.85-2.04-3.39-4.58-5.6-2.71-2.37-7.8-8.14-11.53-12.72-3.56-4.75-7.97-10.01-9.67-11.87s-7.8-9.16-13.57-16.28c-5.94-7.12-14.42-17.3-19.17-22.73-4.58-5.6-9.5-11.2-10.69-12.72-3.39-4.24-19-22.56-23.07-27.14-2.21-2.37-6.45-7.63-9.67-11.87-15.61-20.53-28.16-32.74-38.51-37.49-4.41-2.04-10.01-4.75-12.55-5.94-5.77-3.05-41.05-3.05-47.16.17Z"/>
    <path class="st0" d="M806.29,517.57c-.85.17-5.09,1.36-9.33,2.54-20.53,5.6-37.15,18.32-44.27,33.93-5.26,11.37-9.5,22.9-11.7,32.06-.85,3.05-2.21,6.45-3.22,7.46s-1.87,3.39-1.87,5.43-.68,4.24-1.53,5.09c-.85,1.02-2.37,4.41-3.22,7.63-3.22,10.52-7.29,21.2-8.99,22.73-.85,1.02-1.53,3.56-1.53,5.94,0,2.54-1.19,5.94-2.54,7.63-1.36,1.87-2.54,4.58-2.54,6.28,0,1.53-1.19,5.09-2.54,7.63-1.36,2.71-2.54,6.11-2.54,7.63,0,1.36-1.19,4.07-2.54,5.94-1.36,1.7-2.54,5.26-2.54,7.63,0,2.54-1.19,5.43-2.54,6.62s-2.54,4.07-2.54,6.62c0,2.37-1.19,5.94-2.54,7.63-1.36,1.87-2.54,4.58-2.54,5.94,0,1.53-1.19,4.92-2.54,7.63-1.36,2.54-2.54,6.11-2.54,7.63,0,1.7-1.19,4.41-2.54,6.28-1.36,1.7-2.54,4.75-2.54,6.62s-1.19,4.92-2.54,6.62c-1.36,1.87-2.54,5.43-2.54,7.97,0,2.37-1.19,5.43-2.54,6.62s-2.54,4.07-2.54,6.28c0,2.37-1.02,6.28-2.37,8.65-3.05,6.11-6.28,15.44-7.29,21.03-.51,2.54-1.87,5.6-3.22,6.62s-2.37,3.56-2.37,5.6-1.19,5.26-2.54,7.12c-1.36,1.7-2.54,5.09-2.54,7.46s-1.02,5.77-2.21,7.63-3.9,8.99-6.11,15.78-4.58,12.72-5.43,13.23-1.53,2.54-1.53,4.58-1.19,5.26-2.54,6.95c-1.36,1.87-2.54,4.75-2.54,6.62,0,1.7-1.19,5.94-2.71,9.33-1.53,3.56-3.73,8.82-5.09,11.87s-2.37,6.62-2.37,7.97-1.19,5.26-2.71,8.82c-6.95,15.78-10.69,25.95-12.04,32.74-.51,2.37-1.7,5.09-2.37,6.11-.85,1.02-3.39,7.46-5.77,14.42-5.77,17.3-8.31,24.09-10.01,26.8-.85,1.19-2.04,4.58-2.71,7.63-.85,2.88-3.05,9.5-5.09,14.59s-4.07,11.2-4.58,13.57-1.87,5.26-2.88,6.62-2.21,10.86-2.37,21.2c-.51,14.59,0,20.53,2.04,25.44,1.53,3.56,2.71,7.46,2.71,8.82,0,3.39,10.18,17.81,17.81,24.77,29.69,27.82,78.03,22.73,103.3-10.86,6.28-8.14,21.37-36.3,21.37-39.69,0-1.02,1.19-2.88,2.54-4.07s2.54-3.56,2.54-5.43,1.02-5.43,2.37-7.8c1.19-2.54,3.73-7.63,5.26-11.37,1.7-3.73,4.07-8.99,5.26-11.53,1.36-2.71,2.37-6.28,2.37-7.97,0-1.53,1.19-3.9,2.54-5.09s2.54-3.56,2.54-5.43,1.02-5.43,2.37-7.8c1.19-2.54,3.9-9.16,5.77-14.76s4.41-12.89,5.6-16.11c1.02-3.22,3.05-7.97,4.24-10.52,1.36-2.37,2.37-5.94,2.37-7.8s1.02-5.6,2.37-8.31c1.36-2.54,3.73-9.33,5.26-14.93s3.9-12.72,5.26-15.78,2.37-6.79,2.37-8.48c0-1.53,1.19-4.41,2.54-6.11,1.36-1.87,2.54-5.09,2.54-7.12s1.02-5.94,2.37-8.65c1.36-2.54,3.73-9.33,5.26-14.93,4.58-16.11,7.29-24.6,12.04-38.17,2.37-6.95,4.92-15.61,5.77-19.17.68-3.56,2.21-7.46,3.22-8.48s1.87-3.73,1.87-5.77c0-2.21,1.02-6.11,2.21-8.65,1.36-2.54,3.73-9.5,5.26-15.61,1.7-6.11,4.07-13.06,5.43-15.61,1.36-2.37,2.37-5.94,2.37-7.63,0-1.87,1.19-4.75,2.54-6.62,1.36-1.7,2.54-5.09,2.54-7.12,0-2.21,1.02-6.11,2.37-8.48,1.36-2.54,4.75-12.21,7.8-21.54s6.62-18.49,7.8-20.36c1.36-1.87,2.37-4.92,2.37-6.95s1.02-5.94,2.37-8.65c1.36-2.54,3.73-8.14,5.26-12.38,1.7-4.24,3.9-10.01,5.09-12.72,1.19-2.88,3.39-7.8,4.75-11.03s3.56-8.65,5.09-11.87,3.22-8.99,3.9-12.72,1.87-7.8,2.88-8.99c2.71-3.39-2.88-37.32-6.79-41.39-1.19-1.02-2.21-3.05-2.21-4.41,0-5.26-14.93-21.37-25.27-27.14-11.37-6.45-37.32-10.86-46.82-7.97Z"/>
    <path class="st0" d="M1559.1,519.77c-3.9,1.7-8.14,3.9-9.33,5.09-1.02,1.02-2.88,2.04-3.9,2.04-2.21,0-20.36,18.49-25.95,26.63-7.8,11.03-11.37,36.3-7.29,50.38.85,2.88,2.88,9.84,4.41,15.44,1.53,5.6,3.9,12.72,5.26,15.78s2.37,7.29,2.37,9.33,1.19,5.26,2.54,6.95c1.36,1.87,2.54,5.77,2.54,8.65s1.02,6.62,2.37,8.48c1.19,1.87,2.71,5.26,3.22,7.63,1.02,4.75,3.9,13.23,7.46,21.54,1.19,2.88,2.21,6.79,2.21,8.65s1.02,4.24,2.37,5.26,2.71,4.41,3.22,7.46c.34,3.05,2.37,9.67,4.41,14.76,6.11,15.27,8.82,22.73,9.84,26.29.51,1.87,1.87,5.77,3.22,8.82,1.36,2.88,2.37,6.62,2.37,8.14s1.19,3.9,2.54,5.26c1.36,1.53,2.54,4.24,2.54,6.28s1.19,5.26,2.54,6.95c1.36,1.87,2.54,4.41,2.54,5.77s1.19,5.09,2.71,8.48c1.53,3.56,3.73,8.82,5.09,11.87s2.37,6.95,2.37,8.48c0,1.7,1.19,4.58,2.54,6.45,1.36,1.7,2.54,4.58,2.54,6.11s1.02,4.92,2.37,7.63c1.19,2.54,3.39,7.46,4.75,10.69s3.9,8.82,5.43,12.38,2.71,7.63,2.71,9.33c0,1.53,1.19,4.41,2.54,6.11,1.36,1.87,2.54,4.75,2.54,6.28,0,1.7,1.02,5.09,2.37,7.8,1.19,2.54,3.39,7.46,4.75,10.69s3.9,8.82,5.43,12.38,2.71,7.8,2.71,9.5,1.19,4.07,2.54,5.26,2.54,4.24,2.54,6.79,1.19,5.6,2.54,6.79,2.54,3.73,2.54,5.77,1.19,5.26,2.54,7.12c1.36,1.7,2.54,4.92,2.54,6.95s.68,4.07,1.53,4.58,3.22,6.45,5.43,13.23c2.21,6.79,4.92,13.91,6.11,15.78s2.21,5.26,2.21,7.63,1.19,5.77,2.54,7.46c1.36,1.87,2.54,5.09,2.54,7.12s1.19,4.58,2.54,5.77,2.54,3.56,2.54,5.26,1.02,5.6,2.37,8.65c2.88,7.12,5.94,15.95,7.8,22.56,2.04,7.29,5.26,16.62,6.95,19.51.85,1.36,2.71,5.09,4.24,7.97,3.73,7.29,22.9,25.27,30.87,28.67,6.45,2.88,15.44,5.26,25.44,6.95,14.25,2.37,41.39-7.8,54.45-20.36,7.63-7.46,15.44-18.32,15.44-21.88,0-1.02,1.36-3.39,3.05-5.26,4.24-4.75,4.07-41.9-.17-49.87-1.53-3.05-2.88-7.29-2.88-9.5,0-2.04-.68-4.58-1.53-5.6-1.7-1.53-4.24-8.14-11.37-29.52-2.37-6.95-4.92-13.4-5.6-14.42-.85-.85-1.87-3.56-2.37-5.94-.85-4.24-5.09-16.62-7.8-22.9-.85-1.87-2.71-6.79-4.41-11.03-1.53-4.24-3.9-10.18-5.26-13.23s-2.37-6.79-2.37-8.48c0-1.53-1.19-4.41-2.54-6.11-1.36-1.87-2.54-4.75-2.54-6.45,0-2.71-1.19-5.77-7.63-20.86-1.19-2.88-2.54-6.62-3.05-8.48s-2.54-7.63-4.58-12.72c-2.21-5.09-4.24-11.7-4.58-14.76-.51-3.05-1.87-6.45-3.22-7.46s-2.37-4.07-2.37-6.62-1.02-5.6-2.37-6.62-2.71-4.07-3.22-6.62-2.54-8.82-4.58-13.91-4.07-11.2-4.58-13.57-2.04-5.77-3.22-7.63c-1.36-1.87-2.37-4.92-2.37-6.79,0-2.04-1.19-5.09-2.54-6.95-1.36-1.7-2.54-4.75-2.54-6.62s-1.02-4.92-2.37-6.79c-1.19-1.87-2.71-5.26-3.22-7.63s-2.54-8.48-4.58-13.57-4.24-11.7-4.58-14.76c-.51-3.05-1.87-6.45-3.22-7.46s-2.37-3.22-2.37-4.75-1.19-4.92-2.54-7.63c-1.36-2.54-2.54-6.28-2.54-7.97s-.68-3.39-1.53-3.9c-.68-.51-3.05-6.45-5.09-13.23-2.21-6.79-4.92-14.42-6.28-16.96-1.36-2.37-2.37-5.6-2.37-6.95,0-1.53-1.02-4.75-2.37-7.46-1.36-2.54-4.58-10.86-7.29-18.32-2.71-7.46-5.94-16.28-7.12-19.51s-2.71-7.97-3.05-10.52c-.51-2.54-1.87-5.6-3.22-6.62s-2.37-3.9-2.37-6.11c0-2.37-1.02-6.28-2.37-8.65-1.36-2.54-3.73-7.97-5.26-12.21s-3.56-8.82-4.41-10.18-2.21-4.07-3.05-5.94c-1.87-4.41-14.76-16.28-23.24-21.54-15.78-9.67-44.27-12.89-59.54-6.79Z"/>
    <path class="st0" d="M1174.38,587.45c-13.06,4.75-31.04,21.03-38.68,35.28-8.48,15.61-7.97-1.36-7.97,285.66.17,228.49.51,268.02,2.54,271.58,1.36,2.37,2.37,6.28,2.54,8.82,0,2.71.85,4.75,1.7,4.75,1.02,0,2.37,1.36,3.05,3.05,8.14,20.36,39.86,38.85,63.78,37.15,26.12-1.7,51.23-18.83,63.1-42.92l5.77-11.7v-270.05c0-227.81-.34-270.73-2.37-274.8-8.14-16.45-10.86-20.86-17.64-27.82-7.63-8.31-24.6-18.49-30.53-18.49-2.04,0-4.07-.85-4.58-1.7-1.53-2.54-32.74-1.7-40.71,1.19Z"/>
  </g>
  <rect class="st0" x="317.29" y="1519.65" width="1765.42" height="387.78" rx="129.26" ry="129.26"/>
</svg>