<?xml version="1.0" encoding="UTF-8"?>
<svg id="Camada_1" xmlns="http://www.w3.org/2000/svg" version="1.1" viewBox="0 0 800 800">
  <!-- Generator: Adobe Illustrator 29.7.1, SVG Export Plug-In . SVG Version: 2.1.1 Build 8)  -->
  <defs>
    <style>
      .st0 {
        fill-rule: evenodd;
      }

      .st0, .st1 {
        fill: #fff;
      }

      .st1 {
        font-family: Swiss721BT-Black, 'Swis721 Blk BT';
        font-size: 279px;
        font-weight: 800;
      }
    </style>
  </defs>
  <path class="st0" d="M400,294.68v-105.32c-119.87,0-217.28,94.44-217.28,210.64,0,35.46,9.05,69.16,25.35,98.3l-52.87,51.25c-28.25-43.18-44.91-94.44-44.91-149.55,0-155.17,129.65-280.85,289.71-280.85V13.83l144.86,140.42-144.86,140.42ZM591.93,301.7l52.87-51.25c28.25,43.18,44.91,94.44,44.91,149.55,0,155.17-129.65,280.85-289.71,280.85v105.32l-144.86-140.42,144.86-140.42v105.32c119.87,0,217.28-94.44,217.28-210.64,0-35.46-9.42-68.81-25.35-98.3Z"/>
  <text class="st1" transform="translate(296.66 510.65)"><tspan x="0" y="0">A</tspan></text>
</svg>