<?xml version="1.0" encoding="UTF-8"?>
<svg id="Camada_1" xmlns="http://www.w3.org/2000/svg" version="1.1" viewBox="0 0 1500 500">
  <!-- Generator: Adobe Illustrator 29.7.1, SVG Export Plug-In . SVG Version: 2.1.1 Build 8)  -->
  <defs>
    <style>
      .st0 {
        fill: #010101;
      }
    </style>
  </defs>
  <path class="st0" d="M808.94,330.76h-160.48v-35.39h124.3v-78.79h-124.3v-35.4h160.48v149.58ZM335.19,322.22c-1.19,11.73-7.05,14.41-17.94,15.57-37.69,3.95-79.41,4.87-118.48,4.74-39.06.13-80.8-.79-118.48-4.74-10.92-1.16-16.75-3.84-17.95-15.57-2.15-21.52-2.28-43.74-2.28-66.24s.12-44.74,2.28-66.25c1.2-11.71,7.04-14.41,17.95-15.57,37.68-3.94,79.42-4.85,118.48-4.75,39.07-.11,80.79.8,118.48,4.75,10.89,1.16,16.75,3.85,17.94,15.57,2.16,21.51,2.28,43.74,2.28,66.26s-.12,44.72-2.28,66.23h0ZM1385.66,221.14c-45.1-12.51-90.65-17.43-92.45-40.19.05-13.81,12.42-16.6,22.8-16.6,7.62,0,18.48,2.25,24.87,6.51,6.63,4.43,11.35,10.74,11.5,19.75h0s0,0,0,0h109.54c-2.27-78.27-82.19-111.91-157.75-100.12h-114.3l-82.95,152.36V90.5h-104.28l-96.51,177.06V90.5h-364.55v139.72l-75.99-139.72h-117.8v76.46c-30.4-50.45-85.79-84.32-149.05-84.32-95.92,0-173.79,77.86-173.79,173.35s77.87,173.33,173.79,173.33c63.26,0,118.65-33.88,149.04-84.32v76.44h109.68v-145.48l81.7,145.48h367.98l95.57-169.02v169.02h106.96l98.28-174.86c20.33,21.54,54.4,30.23,85.63,39.07,52.85,15.06,66.17,19.35,66.17,35.24s-20.73,23.67-31.3,23.67c-12.02,0-21.52-7.23-26.2-19.86-1.22-3.14-2.27-7.65-2.27-14.47h-122.33c2.2,100.02,114.42,112.81,150.37,112.81,71.01,0,146.95-26.8,146.95-109.88,0-58.48-44.25-79.52-89.36-92.01"/>
  <path class="st0" d="M198.77,185.83c-39.11,0-70.62,31.51-70.62,70.16s31.51,70.15,70.62,70.15,70.62-31.52,70.62-70.16-31.52-70.16-70.62-70.16"/>
</svg>