<?xml version="1.0" encoding="UTF-8"?>
<svg id="Camada_1" xmlns="http://www.w3.org/2000/svg" version="1.1" viewBox="0 0 1500 500">
  <!-- Generator: Adobe Illustrator 29.7.1, SVG Export Plug-In . SVG Version: 2.1.1 Build 8)  -->
  <defs>
    <style>
      .st0 {
        fill: #010101;
      }
    </style>
  </defs>
  <path class="st0" d="M75.84,74.51c-.28,1.21-.93,6.35-1.5,11.49s-1.59,14.39-2.34,20.56c-2.99,25.23-4.3,36.63-5.61,48.31-.75,6.82-1.68,13.83-1.96,15.42l-.56,3.08h317.81l.56-4.49c.28-2.43.93-7.57,1.4-11.4s1.78-14.58,2.8-23.83,2.34-20,2.8-23.83,1.59-12.9,2.34-20.09c.84-7.2,1.68-14.02,1.96-15.23l.37-2.06H76.21l-.37,2.06Z"/>
  <path class="st0" d="M480.83,73.11c-19.06,3.08-33.73,9.06-47.1,19.16-11.21,8.41-21.87,23.45-26.07,36.72-2.99,9.34-6.26,30.84-6.26,41.21v3.18h696.17v-3.08c0-1.59,1.03-7.94,2.34-14.02,4.67-22.15,2.43-41.3-6.54-55.41-8.22-12.8-20.65-20.84-40.65-26.26-5.7-1.5-22.61-1.59-287.81-1.78-154.93-.09-282.77,0-284.08.28Z"/>
  <path class="st0" d="M1134.58,73.57c-.28.65-.65,3.74-1.03,6.82-.65,5.89-2.34,20.37-4.67,39.71-.84,6.45-2.06,16.73-2.8,22.89-.75,6.17-1.78,14.39-2.24,18.22-.56,3.83-1.03,7.57-1.03,8.13,0,.93,34.67,1.21,170.54,1.21h170.45l.65-3.55c.28-1.87,1.21-5.79,1.87-8.6,2.06-7.94,1.78-31.58-.47-40.37-4.95-19.34-17.19-32.99-35.7-39.9-14.67-5.51-2.71-5.14-155.31-5.42-112.6-.28-139.98-.09-140.26.84Z"/>
  <path class="st0" d="M1119.63,210.94c-.47,2.9-1.12,8.04-4.77,38.59-.75,6.17-1.96,16.45-2.8,22.89-3.46,28.69-4.3,35.7-5.61,46.26-.75,6.17-1.96,16.45-2.8,22.89-3.83,31.58-5.23,42.99-8.41,69.62-.75,6.73-1.59,13.08-1.87,14.2l-.47,2.15h119.42l.56-2.24c.28-1.31,1.21-7.66,1.96-14.3.75-6.54,1.96-17.19,2.8-23.64,1.4-10.93,1.96-15.98,5.61-45.79.84-6.45,2.06-16.73,2.9-22.89.75-6.17,1.96-16.26,2.71-22.43.75-6.17,2.06-16.35,2.8-22.71.75-6.26,2.06-16.54,2.8-22.89.84-6.26,2.06-16.63,2.8-23.08.84-6.45,1.68-12.8,1.96-14.11l.47-2.52-25.98-.56c-14.3-.37-38.5-1.03-53.82-1.5-15.23-.56-30.46-.93-33.73-.93h-5.98l-.56,2.99Z"/>
  <path class="st0" d="M1343.9,212.81c-.28,2.71-1.12,9.34-1.87,14.76-.75,5.42-2.06,14.67-2.8,20.56-.75,5.89-2.06,15.33-2.8,21.03-4.58,33.08-4.39,31.68-8.41,62.14-.75,5.89-2.06,15.51-2.9,21.21-.75,5.79-2.06,15.33-2.8,21.03-3.27,23.45-7.01,52.14-7.01,53.26,0,.37,26.91.75,59.81.75,48.78,0,59.81-.19,59.81-1.21,0-.65.65-5.98,1.4-11.68,1.5-10.93,2.9-21.31,8.41-62.14.75-5.51,2.06-14.76,2.8-20.56.84-5.7,2.06-14.95,2.8-20.56.75-5.51,2.06-14.67,2.8-20.28.75-5.7,2.06-15.04,2.9-20.84.75-5.7,2.06-15.14,2.8-20.75.84-5.7,2.06-14.67,2.8-20.09.75-5.42,1.59-11.77,1.87-14.11l.65-4.39-26.07-.56c-14.39-.37-38.31-1.03-53.26-1.5-14.95-.56-30.18-.93-33.73-.93h-6.54l-.65,4.86Z"/>
  <path class="st0" d="M58.08,213.74c-.28,1.68-.75,5.14-1.03,7.76-.28,2.52-1.21,9.72-1.96,15.89s-1.96,16.26-2.71,22.43c-3.27,26.73-4.21,34.29-5.61,45.32-.84,6.45-2.06,16.73-2.8,22.89-3.27,26.73-4.21,34.29-5.61,45.32-.84,6.45-2.06,16.73-2.8,22.89s-1.78,14.39-2.34,18.22c-.47,3.83-.93,8.41-.93,10v3.08h316.6l.56-2.15c.28-1.12,1.12-7.38,1.87-13.74.84-6.45,2.06-16.82,2.9-23.17,2.62-21.4,4.11-33.36,5.05-41.3.56-4.39,1.21-9.53,1.5-11.49l.47-3.46h-99.05c-54.48,0-99.05-.19-99.05-.37s1.21-8.88,2.8-19.34c1.5-10.47,2.8-19.34,2.8-19.81,0-.37,44.57-.65,99.05-.65h99.05l.37-2.15c.28-1.12.93-6.73,1.5-12.33.56-5.7,1.59-15.51,2.34-21.96s1.96-17.75,2.8-25.23c.75-7.48,1.68-14.95,1.96-16.63l.56-2.99H58.55l-.47,2.99Z"/>
  <path class="st0" d="M398.23,212.25c-1.21,3.27-1.68,23.55-.65,30.56,2.15,15.42,9.34,30,18.6,38.03,2.43,2.15,7.76,5.42,11.87,7.48,14.02,6.73,11.03,6.54,104.94,6.54h83.91l-1.12,8.6c-.65,4.77-1.87,13.46-2.62,19.34-.84,5.89-1.5,11.03-1.5,11.49,0,.37-51.96.75-115.41.75h-115.31l-.47,2.99c-.28,1.68-.75,5.79-1.03,9.16s-1.12,12.52-1.87,20.28c-.84,7.85-2.06,20.84-2.8,28.87-1.4,15.14-2.06,21.77-2.9,27.75l-.37,3.46,139.89-.28c129.8-.28,140.45-.37,146.06-1.96,25.98-6.92,41.96-16.63,52.89-31.96,9.34-13.08,11.87-22.43,19.06-71.86,1.03-7.2,2.71-18.32,3.74-24.76,2.24-14.02,2.34-21.03.47-32.33-3.46-21.49-13.92-35.79-32.99-45.13-6.73-3.36-13.27-5.23-24.48-7.1-7.66-1.21-26.73-1.4-143.07-1.4-122.98,0-134.28.09-134.84,1.5Z"/>
  <path class="st0" d="M764.91,212.34c0,.93-.47,4.86-1.03,8.69-1.12,8.69-3.27,25.98-5.05,40.65-1.31,10.65-2.24,18.5-5.61,45.32-.84,6.45-2.06,16.73-2.8,22.89s-1.96,16.35-2.8,22.61c-1.5,11.96-3.18,26.16-5.61,46.07-.84,6.45-1.87,14.58-2.34,18.22-.47,3.55-.84,7.48-.93,8.6v2.15h119.24l1.68-10.93c.84-6.07,2.43-16.26,3.46-22.71,3.74-23.92,4.67-29.62,5.51-35.51,4.02-25.7,4.86-31.49,6.17-39.71.84-5.14,2.06-12.52,2.62-16.35l1.12-7.01,81.77-.47c80.18-.47,81.77-.56,88.77-2.52,28.5-8.04,45.6-29.72,45.7-57.84,0-3.64.47-9.06.93-12.15.56-2.99,1.21-6.92,1.5-8.6l.47-2.99h-166.43c-157.74,0-166.33.09-166.33,1.59Z"/>
</svg>