<!DOCTYPE svg PUBLIC "-//W3C//DTD SVG 1.1//EN" "http://www.w3.org/Graphics/SVG/1.1/DTD/svg11.dtd">
<!-- Uploaded to: SVG Repo, www.svgrepo.com, Transformed by: SVG Repo Mixer Tools -->
<svg fill="#ffffff" width="800px" height="800px" viewBox="0 0 24 24" id="fast-forward" data-name="Flat Color" xmlns="http://www.w3.org/2000/svg" class="icon flat-color">
<g id="SVGRepo_bgCarrier" stroke-width="0"/>
<g id="SVGRepo_tracerCarrier" stroke-linecap="round" stroke-linejoin="round"/>
<g id="SVGRepo_iconCarrier">
<path id="primary" d="M21.55,11.17l-9-6a1,1,0,0,0-1,0A1,1,0,0,0,11,6v4.13l-7.45-5a1,1,0,0,0-1,0A1,1,0,0,0,2,6V18a1,1,0,0,0,.53.88,1,1,0,0,0,1-.05l7.45-5V18a1,1,0,0,0,.53.88,1,1,0,0,0,1-.05l9-6a1,1,0,0,0,0-1.66Z" style="fill: #ffffff;"/>
</g>
</svg>