<?xml version="1.0" encoding="UTF-8"?>
<svg id="Camada_1" xmlns="http://www.w3.org/2000/svg" version="1.1" viewBox="0 0 1500 500">
  <!-- Generator: Adobe Illustrator 29.7.1, SVG Export Plug-In . SVG Version: 2.1.1 Build 8)  -->
  <defs>
    <style>
      .st0 {
        fill: #010101;
      }
    </style>
  </defs>
  <path class="st0" d="M312.94,136.01c-1.72.95-4.39,1.15-5.73.57-1.53-.57-3.24-.19-3.82.76-.76,1.15-2.67,1.91-4.58,1.91-6.87,0-33.97,15.27-43.32,24.24-5.15,4.96-12.41,13.36-16.03,18.7-3.44,5.15-7.06,10.12-8.02,10.69s-1.91,3.05-2.48,5.53c-1.53,7.82-4.96,17.18-6.49,17.18-.76,0-.95,2.67-.57,5.92.57,3.44.19,5.53-.76,4.96-2.1-1.34-2.29,48.86-.19,50.38.95.57,1.72,4.2,1.91,7.82.19,3.82,1.15,6.3,2.1,5.73s1.34.95.76,3.05c-.76,2.29-.38,3.82.57,3.05,1.53-.76,2.67,3.24,1.91,7.25,0,.95.76,1.53,1.91,1.53.95,0,1.34.76.76,1.91-.57.95-.38,1.91.76,1.91.95,0,2.48,1.91,3.24,4.2,3.44,11.07,40.27,41.61,50.19,41.61,1.15,0,2.1.95,2.1,2.29,0,1.15.57,1.72,1.15.95.76-.57,3.63,0,6.68,1.72,3.05,1.53,5.53,2.29,5.53,1.53s1.15-.38,2.48.76c1.15.95,4.58,1.72,7.63,1.34,2.86-.38,5.15,0,5.15.95,0,.76,8.78,1.15,19.66.76,25.57-1.15,28.05-1.53,28.05-3.24,0-.76,3.05-1.34,6.68-1.34s6.68-.95,6.68-2.1c0-.95.95-1.34,1.91-.76,1.15.57,1.91.19,1.91-.95,0-1.34,1.34-1.91,2.86-1.15,1.53.57,2.86.19,2.86-.95s.95-1.34,1.91-.76c1.15.57,1.91.19,1.91-.76,0-1.15.57-1.91,1.53-1.53,3.63,1.15,36.64-31.49,36.64-36.45,0-2.48-2.48-5.53-6.68-8.02-3.82-2.29-7.82-5.15-9.16-6.49-1.15-1.34-4.96-4.01-8.4-5.92s-5.73-4.2-5.34-4.96c.57-.76-.57-1.15-2.48-.95-1.72,0-3.05-.95-2.67-2.29.19-1.53-.38-2.1-1.34-1.53-.95.76-3.05-.19-4.58-1.72-1.72-1.53-3.82-2.86-4.96-2.86s-2.1-.95-2.1-1.91c0-1.15-1.34-1.91-2.86-1.91s-2.86-.95-2.86-1.91c0-3.24-7.44-2.1-9.35,1.34-2.1,4.2-12.6,10.5-14.31,8.78-.57-.57-1.15-.19-1.15,1.15s-1.53,2.1-3.24,1.91c-1.91-.19-4.96.19-6.68,1.15-1.91.76-4.96.76-6.68-.19-1.91-.76-4.2-1.15-5.15-.95-3.63.76-14.5-4.01-13.36-5.92.76-1.34.38-1.53-.95-.76-1.34.95-4.39-.95-7.82-4.58-9.54-10.12-11.83-32.06-4.77-46.95,3.44-7.44,9.73-12.98,12.6-11.07,1.34.76,1.91.57,1.15-.57s.95-2.86,3.63-4.2c3.82-1.72,4.58-1.72,3.44.19s-.76,1.91,1.34.38c3.24-2.48,22.71-3.05,22.71-.57,0,.95,1.15,1.15,2.67.57s4.39.57,6.49,2.67,4.2,3.44,4.77,3.05c.38-.38,2.29.95,4.2,3.05,3.63,4.01,9.54,4.96,11.45,1.91.76-1.15,2.1-1.53,3.05-.95.95.76,1.72.19,1.72-.76,0-1.15,1.34-2.1,3.24-2.1,1.72,0,2.48-.57,1.91-1.34-1.91-1.72,8.4-8.21,10.88-6.87,1.15.57,1.53.57.76-.38-1.53-1.53,12.21-12.41,15.65-12.41.95,0,1.91-.95,1.91-1.91,0-1.15.95-1.91,2.1-1.91s3.24-1.34,4.77-2.86,4.2-3.63,6.11-4.58c2.67-1.53,2.86-2.48.57-6.49-2.86-5.34-28.82-32.64-28.82-30.54,0,.95-1.34-.19-2.86-2.1-1.53-2.1-2.86-3.24-2.86-2.48s-1.91.19-4.39-1.34c-10.69-7.06-28.63-11.07-51.34-11.45-12.21-.19-23.67.38-25.38,1.34Z"/>
  <path class="st0" d="M615.82,139.44c-5.92,1.72-9.54,4.58-15.27,11.64-1.34,1.72-5.92,14.89-10.12,29.58-4.2,14.5-11.64,39.7-16.41,55.92-8.59,29.77-15.46,53.44-20.61,72.33-1.72,5.53-3.44,11.07-4.01,11.83-.57.95-1.34,4.2-1.91,7.06-.38,2.86-1.72,9.16-2.86,14.31-1.15,4.96-1.53,11.26-.95,13.74,1.15,4.39,2.1,4.77,13.17,4.77,9.54,0,12.41-.76,14.12-3.44,1.15-1.91,6.11-17.56,10.88-34.73s9.16-31.49,9.54-31.87,16.6-.95,35.88-1.15l35.31-.38,9.16,32.44c5.15,17.75,10.5,33.97,12.02,35.69,2.1,2.67,5.73,3.44,14.31,3.44,6.3,0,11.07-.57,10.31-1.15-.57-.76.19-2.48,1.72-4.01,1.72-1.91,2.29-4.39,1.53-7.06-.76-2.1-1.53-5.73-1.91-7.82-.19-2.1-.57-4.01-.76-4.39-.38-.19-.57-.95-.95-1.91-.19-.76-.76-2.67-1.53-4.2-.95-2.67-2.86-10.31-3.44-14.31,0-1.15-.95-3.24-1.91-4.96-.76-1.72-1.91-5.15-2.48-7.63-.38-2.48-3.82-14.89-7.44-27.48-3.82-12.6-13.17-44.85-20.8-71.76-7.82-26.91-15.65-51.34-17.56-54.2-6.49-9.92-22.71-14.31-37.02-10.31ZM628.8,167.88c0,.95-.19,2.1-.38,2.29-.19.38.76,2.48,2.1,4.96s3.63,9.35,5.34,15.27c3.82,15.08,4.01,15.27,7.44,27.1,3.05,10.69,4.01,13.93,8.97,31.87l2.67,9.92-28.25.57c-24.62.57-28.25.19-27.48-2.29,3.24-11.07,18.13-64.51,20.99-75.39,1.91-7.44,3.82-13.93,4.2-14.89,1.15-1.91,4.39-1.72,4.39.57Z"/>
  <path class="st0" d="M787.2,139.25c-15.65,2.67-38.17,14.7-38.17,20.04,0,1.34-1.15,2.86-2.48,3.44-4.39,1.72-12.6,19.47-16.6,35.88-3.44,14.12-3.82,20.99-3.24,56.11.76,46.19,3.05,56.68,16.99,77.29,7.63,11.45,24.24,24.81,30.73,24.81,1.34,0,3.24.57,4.01,1.34,2.67,2.86,36.45,3.82,56.49,1.72,6.87-.76,13.74-1.34,15.46-1.34,6.11-.19,11.64-16.99,7.63-24.05-1.72-3.05-5.15-3.44-35.88-3.44-32.44,0-34.35-.19-41.99-4.58-18.32-10.5-23.47-25.57-24.43-69.85-.76-34.73.76-50,6.87-63.93,3.24-7.44,15.08-20.61,19.28-21.18,3.82-.57,4.58-.95,6.68-2.29,1.15-.76,17.18-1.15,35.31-.95l33.02.57.57-11.07c.76-12.98-.95-15.65-9.54-16.22-3.63-.19-8.59-.95-11.07-1.34-9.35-1.91-41.22-2.48-49.62-.95Z"/>
  <path class="st0" d="M1186.65,139.63c-1.91.76-6.87,2.29-11.07,3.24-18.32,4.77-37.41,27.48-45.23,53.63-1.72,5.92-2.48,21.95-2.48,52.48,0,46.19,1.34,55.54,10.5,73.48,4.77,9.16,17.56,23.28,24.05,26.72,3.05,1.53,7.06,4.01,8.97,5.53,1.72,1.53,3.24,2.1,3.24,1.34s1.91-.19,4.2.95c2.48,1.34,7.25,2.67,11.07,3.05,15.27,1.91,45.42,0,47.71-2.86,1.15-1.72,11.83-6.87,13.36-6.49,1.91.19,23.86-23.47,24.43-26.34.38-1.53,1.53-3.24,2.48-3.44.95-.38,1.34-1.53.57-2.48-.57-.95-.19-1.72.76-1.72,1.15,0,1.72-1.15,1.72-2.48-.19-1.15.95-7.44,2.48-13.74,2.1-8.4,2.86-22.71,2.67-53.44,0-37.41-.57-43.32-4.2-54.2-2.1-6.87-3.44-13.17-2.86-14.12.57-1.15.19-1.34-.95-.57-1.34.76-2.29.38-2.29-.95s-2.29-5.34-5.15-8.97c-2.86-3.82-3.82-6.11-2.29-5.15s.38-.57-2.48-3.44c-9.92-9.35-26.72-17.75-40.84-20.23-13.74-2.29-32.06-2.29-38.36.19ZM1229.59,172.84c11.45,5.73,17.56,12.98,22.52,26.53,3.05,8.21,3.44,15.46,3.44,50.58,0,38.17-.19,41.8-4.39,51.91-7.44,18.89-19.66,28.05-39.51,29.77-16.79,1.34-29.2-3.24-38.74-14.12-11.26-12.98-13.74-21.95-14.89-56.11-1.15-33.02,1.15-55.73,6.87-68.71,3.63-8.4,11.64-17.18,15.46-17.18,1.15,0,1.91-.76,1.91-1.72,0-2.67,11.83-5.53,25-5.73,9.73-.19,14.5.76,22.33,4.77Z"/>
  <path class="st0" d="M24.18,172.08l.57,32.64,28.05-.38,28.25-.38.38,77.87.57,77.87,38.55.57,38.55.38.19-76.53c0-42.18.57-77.49,1.15-78.44s12.98-1.53,28.05-1.34l27.1.38.57-31.11c.38-23.67-.19-31.49-1.91-32.83-1.34-.76-44.85-1.53-96.57-1.53l-93.9.19.38,32.64Z"/>
  <path class="st0" d="M876.14,142.88c-3.82,4.2-4.01,20.99-.38,23.47,1.15.76,15.27,1.53,31.3,1.53h29.01l.38,92.56c0,50.96.19,93.71.38,94.85.38,4.01,3.63,5.34,13.93,5.34,16.99,0,15.84,6.87,15.84-99.43v-93.33l29.2-.19c15.84-.19,29.58-.19,30.54,0,1.53.19,1.53.76,1.91-13.17.19-7.44-.38-11.26-2.48-12.79-2.1-1.72-21.18-2.29-74.62-2.48-68.32,0-71.95.19-75,3.63Z"/>
  <path class="st0" d="M1061.07,142.3c-2.67,2.67-2.86,14.12-2.48,108.78.57,118.71-.76,109.55,15.65,109.55,6.68,0,10.12-.95,11.83-3.44,3.63-4.58,3.82-212.23.38-215.66s-21.57-2.86-25.38.76Z"/>
  <path class="st0" d="M1329.03,140.59c-1.72.38-4.01,2.86-5.34,5.53-2.86,6.3-3.05,205.35-.19,210.89,1.72,2.86,4.2,3.63,12.98,3.63,17.18,0,16.41,4.01,17.56-85.88l.95-77.29,4.01,7.63c2.29,4.2,7.06,13.17,10.69,20.04s15.08,28.25,25.19,47.71c10.31,19.47,20.04,37.22,21.57,39.7,1.34,2.29,2.1,4.96,1.53,5.92-.38.95.38,2.29,2.1,2.86,1.72.76,2.67,2.48,1.91,4.2-.57,1.53-.38,2.48.38,1.91.95-.57,4.58,5.15,8.21,12.79s7.06,14.12,8.02,14.31c.76.38,2.67,1.91,4.01,3.44,1.91,1.72,6.87,2.67,14.31,2.67,20.8,0,19.28,9.16,19.28-112.6,0-101.72-.19-104.97-3.63-106.88-5.15-2.67-17.94-2.48-21.76.57-3.05,2.1-3.44,8.78-3.44,85.31v83.02l-11.83-23.86c-6.49-13.17-12.6-24.43-13.74-25.19-1.34-.95-1.34-1.53,0-1.53,1.15,0,1.15-.57,0-1.53-1.15-.76-4.2-5.73-6.87-10.88-8.4-16.41-27.1-51.53-28.44-53.44-.76-1.15-6.68-12.41-13.17-25.19-6.49-12.98-13.74-24.81-16.03-26.34-3.82-2.67-20.61-3.63-28.25-1.53Z"/>
  <path class="st0" d="M451.31,216.93c0,.95-.38,16.41-.57,34.54-.38,26.72,0,32.64,2.1,31.87,1.53-.57,16.22-.95,33.02-.95h30.35v-66.8h-32.44c-17.75,0-32.44.57-32.44,1.34Z"/>
</svg>