<?xml version="1.0" encoding="UTF-8"?>
<svg id="Camada_1" xmlns="http://www.w3.org/2000/svg" version="1.1" viewBox="0 0 1500 500">
  <!-- Generator: Adobe Illustrator 29.7.1, SVG Export Plug-In . SVG Version: 2.1.1 Build 8)  -->
  <defs>
    <style>
      .st0 {
        fill: #010101;
      }
    </style>
  </defs>
  <path class="st0" d="M535.63,461.69h-113.63v-162.31h-73.76v162.31h-116.65l-.43-418.35h117.08v155.65h73.76V43.33h113.63v418.35ZM1056.33,463.68c117.17-.09,212.51-97.41,212.51-214.63.72-116.76-93.36-212-210.12-212.72-.79,0-1.59,0-2.38,0-117.04-.09-176.84,86.08-191.62,120.85.13-52.19-51.32-113.8-111.55-113.88h-193.83v418.27l180.77.04c72.9,0,124.78-63.13,124.87-117.3,16.65,34.07,74.37,119.42,191.41,119.33l-.04.04ZM724.92,293.5c16.73,0,29.92,16.52,29.92,35.32s-13.19,35.32-29.92,35.32h-57.5v-70.65h57.5ZM725.14,136.42c16.73,0,29.92,16.52,29.92,35.32s-13.19,35.37-29.92,35.37h-57.5v-70.69h57.5ZM801.67,249.14c13.19-1.69,35.15-16.73,42.89-26.37-2.72,11.93-2.94,46.44.26,58.37-8.82-13.58-29.75-30.31-43.15-31.99h0ZM949.97,249.14c0-58.79,47.66-106.45,106.45-106.45s106.45,47.66,106.45,106.45-47.67,106.47-106.47,106.47-106.47-47.67-106.47-106.47h.04ZM1056.41,332.84c46.23.02,83.72-37.45,83.74-83.68s-37.45-83.72-83.68-83.74h-.06c-46.23.02-83.69,37.51-83.68,83.74.02,46.21,37.47,83.66,83.68,83.68Z"/>
</svg>