<?xml version="1.0" encoding="UTF-8"?>
<svg id="Camada_1" xmlns="http://www.w3.org/2000/svg" version="1.1" viewBox="0 0 1500 500">
  <!-- Generator: Adobe Illustrator 29.7.1, SVG Export Plug-In . SVG Version: 2.1.1 Build 8)  -->
  <defs>
    <style>
      .st0 {
        fill: #010101;
      }
    </style>
  </defs>
  <path class="st0" d="M1033.53,183.14c.79,119.98.79,121.04,6.87,134.25,7.66,16.65,19.29,29.07,36.21,37.79,12.42,6.61,15.86,7.14,54.97,7.93l41.49,1.06v-62.63l-22.46-.53c-43.87-1.06-51.27-12.16-51.53-75.58v-33.56h52.06l14.8-28.81c8.46-15.86,15.06-30.13,15.06-31.71,0-2.11-12.16-2.91-39.64-2.91h-39.64V62.37h-68.98l.79,120.77Z"/>
  <path class="st0" d="M665.92,124.73c-55.23,14.8-95.4,66.33-95.4,122.62,0,81.13,79.28,142.97,157.24,122.89,67.65-17.71,109.67-86.95,92.5-152.75-17.71-68.45-88-110.73-154.34-92.76ZM729.61,198.47c15.86,11.36,23.26,26.96,23.26,48.89s-7.4,37.53-23.52,48.89c-10.31,7.14-13.21,7.93-31.98,7.93s-21.67-.79-31.98-7.93c-36.73-25.9-28.81-91.17,12.95-104.65,3.96-1.06,14.54-1.85,23.52-1.59,13.48.53,18.76,2.38,27.75,8.46Z"/>
  <path class="st0" d="M402.18,126.85c-13.74,4.49-26.69,12.42-35.15,21.41l-6.61,7.14-1.32-14.27-1.32-14.01-33.56-.79-33.83-.79v312.11h68.71v-98.31l12.16,10.84c33.03,29.07,86.95,28.28,126.59-1.85,16.65-12.42,31.45-31.98,38.85-50.74,7.93-20.35,9.78-64.48,3.44-86.15-10.31-36.21-34.09-65.8-63.95-79.81-12.42-5.81-19.82-7.14-39.11-7.66-14.54-.53-28.01.79-34.88,2.91ZM436.53,192.12c31.18,8.46,47.57,47.57,33.3,79.02-7.14,15.86-11.89,20.88-27.48,28.01-48.89,22.99-99.37-17.97-84.83-68.71,5.02-17.44,19.03-33.3,33.3-37.79,12.16-3.7,33.3-4.23,45.72-.53Z"/>
  <path class="st0" d="M853.29,244.71v121.57h73.73l.79-68.18c.53-57.08,1.59-69.24,5.29-75.85,10.04-18.5,27.75-28.01,54.44-29.86l19.03-1.32v-65.28h-14.54c-20.08,0-41.49,8.72-56.29,22.73-6.61,6.34-12.42,11.63-12.95,11.63s-.79-8.46-.79-18.5v-18.5h-68.71v121.57Z"/>
  <path class="st0" d="M1195.26,132.93c1.06,2.64,22.73,56.82,48.63,120.24l46.78,115.75h68.71l49.68-114.69c27.48-63.16,50.48-117.07,51.27-120.24,1.32-5.55.79-5.55-39.64-5.55-36.73,0-41.49.53-43.61,4.49-1.59,2.64-12.95,33.83-25.9,69.24-16.65,46.78-23.78,63.43-25.63,60.78-1.32-2.11-13.48-33.03-26.69-68.45l-24.31-64.75-40.43-.79c-37.79-.53-40.43-.26-38.85,3.96Z"/>
  <path class="st0" d="M82.41,136.63c-16.12,7.93-36.47,30.92-40.17,45.72-6.34,25.37-1.59,49.15,12.95,65.8,17.44,19.82,38.85,26.96,92.5,30.92,30.39,2.11,41.76,6.34,44.13,16.12,1.32,4.49,4.23,5.02,37.26,5.02h35.68l-1.59-15.33c-2.11-19.03-7.4-31.98-18.23-44.13-15.86-18.23-30.92-22.73-90.65-27.75-18.76-1.59-35.68-4.23-37.53-5.81-4.49-3.44-4.49-11.63,0-14.54,1.59-1.06,25.63-2.64,53.12-3.44l49.68-1.32,11.63-26.43c6.34-14.54,11.63-27.22,11.63-28.28s-33.56-2.11-74.53-2.11c-70.56,0-75.32.26-85.89,5.55Z"/>
  <path class="st0" d="M58.89,323.2c-12.16,26.43-19.56,43.34-19.56,44.66,0,.53,26.69,1.06,59.2,1.06h58.93l14.01-29.86c7.66-16.12,14.27-31.18,15.06-33.03,1.06-2.38-11.63-3.17-58.4-3.17h-59.99l-9.25,20.35Z"/>
</svg>