<?xml version="1.0" encoding="UTF-8"?>
<svg id="_x32_" xmlns="http://www.w3.org/2000/svg" version="1.1" viewBox="0 0 800 800">
  <!-- Generator: Adobe Illustrator 29.7.1, SVG Export Plug-In . SVG Version: 2.1.1 Build 8)  -->
  <defs>
    <style>
      .st0 {
        fill: #fff;
      }
    </style>
  </defs>
  <path class="st0" d="M400,209.14c-105.42,0-190.86,85.44-190.86,190.86s85.44,190.86,190.86,190.86,190.86-85.44,190.86-190.86-85.46-190.86-190.86-190.86Z"/>
  <path class="st0" d="M400,149.48c21.93,0,39.74-17.81,39.74-39.74s-17.8-39.74-39.74-39.74-39.74,17.79-39.74,39.74,17.79,39.74,39.74,39.74Z"/>
  <path class="st0" d="M400,650.52c-21.95,0-39.74,17.79-39.74,39.74s17.79,39.74,39.74,39.74,39.74-17.81,39.74-39.74-17.8-39.74-39.74-39.74Z"/>
  <path class="st0" d="M222.84,222.85c15.53-15.53,15.53-40.67,0-56.2-15.51-15.53-40.67-15.53-56.17,0-15.53,15.53-15.53,40.67,0,56.2,15.51,15.53,40.66,15.53,56.17,0Z"/>
  <path class="st0" d="M577.15,577.15c-15.51,15.53-15.51,40.69,0,56.2s40.69,15.53,56.2,0c15.51-15.51,15.53-40.67,0-56.2s-40.67-15.51-56.2,0Z"/>
  <path class="st0" d="M109.74,360.28c-21.95,0-39.74,17.78-39.74,39.72s17.79,39.74,39.74,39.74,39.72-17.79,39.72-39.74-17.79-39.72-39.72-39.72Z"/>
  <path class="st0" d="M690.26,360.28c-21.93,0-39.74,17.76-39.74,39.72s17.81,39.74,39.74,39.74,39.74-17.79,39.74-39.74c-.02-21.93-17.79-39.72-39.74-39.72Z"/>
  <path class="st0" d="M166.66,577.15c-15.53,15.53-15.53,40.69,0,56.2,15.51,15.53,40.67,15.53,56.2,0s15.51-40.67,0-56.17c-15.53-15.53-40.69-15.53-56.2-.02h0Z"/>
  <path class="st0" d="M577.17,166.66c-15.53,15.53-15.53,40.67-.02,56.2,15.53,15.53,40.69,15.53,56.2,0,15.53-15.53,15.53-40.67,0-56.2-15.51-15.51-40.67-15.53-56.17,0h-.01Z"/>
</svg>